# xmcd
# 
# Track frame offsets:
#     150
#     20255
#     42685
# 
# Disc length: 848
# 
# Revision: 2
# Processed by: cddbd v1.5.2PL0 Copyright (c) Steve Scherf et al.
# Submitted via: fre:ac v1.1beta1pre5
# 
DISCID=1f034e03
DTITLE=LeAnn Rimes - How do I Live
DYEAR=1997
DGENRE=Country
TTITLE0=How do I Live- Film Mix
TTITLE1=How do I Live- Extended Mix
TTITLE2=I Will Always Love You
EXTD=
EXTT0=
EXTT1=
EXTT2=
PLAYORDER=
